<svg width="13" height="24" viewBox="0 0 13 24" fill="none" xmlns="http://www.w3.org/2000/svg">
<path fill-rule="evenodd" clip-rule="evenodd" d="M6.5 0C2.91015 0 0 2.91015 0 6.5V17.5C0 21.0899 2.91015 24 6.5 24C10.0899 24 13 21.0899 13 17.5V6.5C13 2.91015 10.0899 0 6.5 0ZM9.36456 8.44458C9.36456 9.65774 8.59968 10.6935 7.52267 11.1023L9.03325 15.6648H3.74512L5.28294 11.0201C4.3096 10.5657 3.63574 9.58327 3.63574 8.44458C3.63574 6.8737 4.91818 5.60026 6.50015 5.60026C8.08212 5.60026 9.36456 6.8737 9.36456 8.44458ZM10.0253 16.9775H2.86426V18.3997H10.0253V16.9775Z" fill="#F5EBC9"/>
</svg>
