<svg width="24" height="24" viewBox="0 0 24 24" fill="none" xmlns="http://www.w3.org/2000/svg">
<path d="M7.1498 12.6998L12.4498 17.9998C12.5831 18.1331 12.6581 18.2956 12.6748 18.4873C12.6915 18.679 12.6248 18.8498 12.4748 18.9998C12.3248 19.1665 12.1581 19.2456 11.9748 19.2373C11.7915 19.229 11.6248 19.1498 11.4748 18.9998L5.2498 12.7748C5.13314 12.6581 5.0498 12.5415 4.9998 12.4248C4.9498 12.3081 4.9248 12.1748 4.9248 12.0248C4.9248 11.8748 4.9498 11.7415 4.9998 11.6248C5.0498 11.5081 5.13314 11.3915 5.2498 11.2748L11.5248 4.99981C11.6748 4.84981 11.8415 4.77065 12.0248 4.76231C12.2081 4.75398 12.3748 4.83315 12.5248 4.99981C12.6748 5.14981 12.7498 5.31231 12.7498 5.48731C12.7498 5.66231 12.6748 5.82481 12.5248 5.97481L7.1498 11.3498H18.8248C19.0081 11.3498 19.1665 11.4165 19.2998 11.5498C19.4331 11.6831 19.4998 11.8415 19.4998 12.0248C19.4998 12.2081 19.4331 12.3665 19.2998 12.4998C19.1665 12.6331 19.0081 12.6998 18.8248 12.6998H7.1498Z" fill="#F5EBC9"/>
</svg>
