<svg width="24" height="24" viewBox="0 0 24 24" fill="none" xmlns="http://www.w3.org/2000/svg">
<path d="M12.0251 12.95L6.80007 18.2C6.65007 18.35 6.48757 18.425 6.31257 18.425C6.13757 18.425 5.96674 18.3417 5.80007 18.175C5.65007 18.0083 5.57924 17.85 5.58757 17.7C5.59591 17.55 5.67507 17.3917 5.82507 17.225L11.0251 12L5.80007 6.725C5.66674 6.575 5.59591 6.42083 5.58757 6.2625C5.57924 6.10416 5.65007 5.94166 5.80007 5.775C5.96674 5.60833 6.13341 5.52083 6.30007 5.5125C6.46674 5.50416 6.63341 5.58333 6.80007 5.75L12.0251 11L17.2001 5.75C17.3501 5.6 17.5126 5.525 17.6876 5.525C17.8626 5.525 18.0334 5.60833 18.2001 5.775C18.3501 5.94166 18.4209 6.1 18.4126 6.25C18.4042 6.4 18.3251 6.55833 18.1751 6.725L12.9751 12L18.1751 17.225C18.3084 17.3583 18.3834 17.5083 18.4001 17.675C18.4167 17.8417 18.3501 18.0083 18.2001 18.175C18.0334 18.3417 17.8667 18.4292 17.7001 18.4375C17.5334 18.4458 17.3667 18.3667 17.2001 18.2L12.0251 12.95Z" fill="#F5EBC9"/>
</svg>
