<svg width="201" height="200" viewBox="0 0 201 200" fill="none" xmlns="http://www.w3.org/2000/svg">
<path opacity="0.0169492" d="M76.2878 178.811C76.2878 178.811 49.5898 177.132 26.9045 130.621C8.56323 93.0154 19.4947 72.9835 38.7284 63.6026C70.3208 48.194 100.359 92.3446 132.135 76.8463C146.83 69.6793 169.763 58.494 169.763 58.494" stroke="#F5EBC9" stroke-width="1.00012"/>
<path opacity="0.0338983" d="M73.5518 177.901C73.5518 177.901 46.9287 175.292 25.8805 128.016C8.86273 89.794 20.4867 70.1558 40.036 61.4518C72.1469 47.1551 100.626 92.3272 132.923 77.9473C147.859 71.2975 171.169 60.9194 171.169 60.9194" stroke="#F5EBC9" stroke-width="1.00012"/>
<path opacity="0.0508475" d="M70.8505 176.896C70.8505 176.896 44.3347 173.359 24.9491 125.378C9.27571 86.5849 21.5779 67.3643 41.4191 59.348C74.0094 46.1806 100.894 92.3191 133.674 79.0752C148.833 72.9506 172.491 63.3923 172.491 63.3923" stroke="#F5EBC9" stroke-width="1.00012"/>
<path opacity="0.0677966" d="M68.1854 175.798C68.1854 175.798 41.8092 171.337 24.1099 122.709C9.79993 83.3925 22.7654 64.613 42.8743 57.294C75.9043 45.272 101.163 92.3207 134.385 80.2288C149.748 74.637 173.725 65.9102 173.725 65.9102" stroke="#F5EBC9" stroke-width="1.00012"/>
<path opacity="0.0847458" d="M65.5591 174.606C65.5591 174.606 39.3546 169.228 23.3633 120.012C10.4341 80.2199 24.0471 61.9043 44.3991 55.2915C77.8286 44.4296 101.43 92.3311 135.054 81.406C150.603 76.3538 174.869 68.469 174.869 68.469" stroke="#F5EBC9" stroke-width="1.00012"/>
<path opacity="0.101695" d="M62.9781 173.325C62.9781 173.325 36.9773 167.035 22.7133 117.291C11.1807 77.0718 25.4246 59.2425 45.9951 53.344C79.7832 43.6554 101.698 92.3514 135.683 82.6064C151.399 78.0999 175.926 71.0669 175.926 71.0669" stroke="#F5EBC9" stroke-width="1.00012"/>
<path opacity="0.118644" d="M60.4422 171.953C60.4422 171.953 34.6766 164.76 22.1574 114.548C12.0355 73.9512 26.893 56.6298 47.6567 51.4529C81.7624 42.9493 101.964 92.3805 136.269 83.8275C152.132 79.8722 176.89 73.6995 176.89 73.6995" stroke="#F5EBC9" stroke-width="1.00012"/>
<path opacity="0.135593" d="M57.9549 170.495C57.9549 170.495 32.4561 162.407 21.6968 111.789C12.9979 70.8631 28.4508 54.0708 49.3826 49.6216C83.7643 42.3136 102.229 92.4196 136.811 85.069C152.803 81.6698 177.761 76.3648 177.761 76.3648" stroke="#F5EBC9" stroke-width="1.00012"/>
<path opacity="0.152542" d="M55.5209 168.95C55.5209 168.95 30.3199 159.977 21.3338 109.014C14.0684 67.81 30.098 51.5672 51.1723 47.8513C85.7881 41.7476 102.493 92.4675 137.31 86.3283C153.411 83.4893 178.539 79.0585 178.539 79.0585" stroke="#F5EBC9" stroke-width="1.00012"/>
<path opacity="0.169492" d="M53.1431 167.321C53.1431 167.321 28.2705 157.474 21.0685 106.229C15.2455 64.7962 31.8322 49.1227 53.0233 46.1445C87.831 41.2526 102.756 92.5246 137.766 87.6042C153.956 85.3289 179.223 81.7778 179.223 81.7778" stroke="#F5EBC9" stroke-width="1.00012"/>
<path opacity="0.186441" d="M50.8221 165.61C50.8221 165.61 26.3084 154.901 20.8991 103.436C16.5257 61.8253 33.6492 46.7402 54.9314 44.5034C89.8886 40.8292 103.015 92.5908 138.175 88.8953C154.435 87.1864 179.811 84.5192 179.811 84.5192" stroke="#F5EBC9" stroke-width="1.00012"/>
<path opacity="0.20339" d="M48.5628 163.819C48.5628 163.819 24.4377 152.262 20.8279 100.639C17.9093 58.9008 35.5489 44.4225 56.8962 42.9297C91.9603 40.4778 103.272 92.666 138.54 90.1998C154.849 89.0594 180.303 87.2795 180.303 87.2795" stroke="#F5EBC9" stroke-width="1.00012"/>
<path opacity="0.220339" d="M46.368 161.951C46.368 161.951 22.661 149.558 20.8549 97.8407C19.3948 56.0265 37.5289 42.1726 58.9153 41.4258C94.0436 40.1991 103.527 92.7503 138.86 91.5164C155.199 90.9458 180.699 90.0553 180.699 90.0553" stroke="#F5EBC9" stroke-width="1.00012"/>
<path opacity="0.237288" d="M44.2395 160.007C44.2395 160.007 20.9795 146.794 20.9795 95.0452C20.9795 53.2055 39.5861 39.993 60.9855 39.993C96.1353 39.993 103.779 92.8431 139.133 92.8431C155.482 92.8431 180.998 92.8431 180.998 92.8431" stroke="#F5EBC9" stroke-width="1.00012"/>
<path opacity="0.254237" d="M42.1795 157.989C42.1795 157.989 19.3947 143.973 21.2007 92.2557C22.6609 50.4415 41.7173 37.8864 63.1036 38.6332C98.232 39.8599 104.026 92.9446 139.359 94.1784C155.698 94.749 181.199 95.6395 181.199 95.6395" stroke="#F5EBC9" stroke-width="1.00012"/>
<path opacity="0.271186" d="M40.1917 155.902C40.1917 155.902 17.9099 141.099 21.5198 89.4764C24.4384 47.7386 43.9213 35.8562 65.2685 37.349C100.333 39.8009 104.271 93.0555 139.539 95.5217C155.849 96.6621 181.302 98.442 181.302 98.442" stroke="#F5EBC9" stroke-width="1.00012"/>
<path opacity="0.288136" d="M38.2781 153.746C38.2781 153.746 16.5266 138.175 21.9358 86.7092C26.3093 45.0987 46.195 33.9035 67.4772 36.1403C102.434 39.8145 104.512 93.1741 139.672 96.8696C155.932 98.5785 181.308 101.246 181.308 101.246" stroke="#F5EBC9" stroke-width="1.00012"/>
<path opacity="0.305085" d="M36.4399 151.525C36.4399 151.525 15.2451 135.204 22.4472 83.9582C28.2701 42.5257 48.5345 32.0313 69.7256 35.0095C104.533 39.9014 104.747 93.301 139.757 98.2213C155.948 100.497 181.215 104.048 181.215 104.048" stroke="#F5EBC9" stroke-width="1.00012"/>
<path opacity="0.322034" d="M34.6811 149.241C34.6811 149.241 14.0687 132.19 23.0549 81.2274C30.3203 40.0234 50.9385 30.2426 72.0128 33.9586C106.629 40.0623 104.979 93.4368 139.796 99.576C155.897 102.415 181.025 106.846 181.025 106.846" stroke="#F5EBC9" stroke-width="1.00012"/>
<path opacity="0.338983" d="M33.0027 146.897C33.0027 146.897 12.998 129.137 23.7573 78.519C32.4562 37.5936 53.4032 28.5383 74.335 32.9875C108.717 40.2956 105.205 93.58 139.787 100.931C155.779 104.33 180.737 109.635 180.737 109.635" stroke="#F5EBC9" stroke-width="1.00012"/>
<path opacity="0.355932" d="M31.408 144.495C31.408 144.495 12.0353 126.048 24.5545 75.8362C34.6764 35.2393 55.9267 26.9206 76.6905 32.0976C110.796 40.6011 105.427 93.7305 139.731 102.283C155.595 106.239 180.352 112.411 180.352 112.411" stroke="#F5EBC9" stroke-width="1.00012"/>
<path opacity="0.372881" d="M29.8971 142.04C29.8971 142.04 11.18 122.928 25.4439 73.1833C36.9765 32.9644 58.5042 25.3924 79.0746 31.2909C112.863 40.9795 105.643 93.8891 139.627 103.634C155.343 108.141 179.871 115.174 179.871 115.174" stroke="#F5EBC9" stroke-width="1.00012"/>
<path opacity="0.38983" d="M28.4732 139.533C28.4732 139.533 10.4345 119.78 26.4258 70.5635C39.355 30.7716 61.1338 23.9555 81.4858 30.5683C114.915 41.4302 105.853 94.0556 139.477 104.981C155.026 110.033 179.293 117.918 179.293 117.918" stroke="#F5EBC9" stroke-width="1.00012"/>
<path opacity="0.40678" d="M27.1385 136.979C27.1385 136.979 9.8002 116.608 27.4994 67.9795C41.8094 28.663 63.8129 22.6112 83.9217 29.9302C116.952 41.9521 106.058 94.2292 139.281 106.321C154.644 111.913 178.621 120.64 178.621 120.64" stroke="#F5EBC9" stroke-width="1.00012"/>
<path opacity="0.423729" d="M25.8925 134.379C25.8925 134.379 9.27567 113.415 28.6612 65.4342C44.3346 26.6411 66.5359 21.3608 86.377 29.3771C118.967 42.5445 106.256 94.4096 139.036 107.654C154.195 113.778 177.853 123.336 177.853 123.336" stroke="#F5EBC9" stroke-width="1.00012"/>
<path opacity="0.440678" d="M24.7374 131.737C24.7374 131.737 8.8623 110.206 29.9105 62.931C46.9283 24.7085 69.3003 20.2063 88.8496 28.9102C120.961 43.2069 106.447 94.5968 138.745 108.977C153.681 115.627 176.99 126.005 176.99 126.005" stroke="#F5EBC9" stroke-width="1.00012"/>
<path opacity="0.457627" d="M23.6765 129.056C23.6765 129.056 8.5625 106.985 31.2478 60.4728C49.5891 22.8675 72.1046 19.1487 91.3382 28.5296C122.931 43.9383 106.633 94.7904 138.409 110.289C153.103 117.456 176.037 128.641 176.037 128.641" stroke="#F5EBC9" stroke-width="1.00012"/>
<path opacity="0.474576" d="M22.7103 126.341C22.7103 126.341 8.37576 103.755 32.6705 58.0632C52.313 21.1209 74.9446 18.1902 93.8391 28.2366C124.875 44.7385 106.812 94.9908 138.028 111.589C152.463 119.264 174.992 131.243 174.992 131.243" stroke="#F5EBC9" stroke-width="1.00012"/>
<path opacity="0.491525" d="M21.8381 123.593C21.8381 123.593 8.3006 100.521 34.1751 55.7045C55.095 19.4703 77.815 17.3312 96.3474 28.0309C126.788 45.6057 106.982 95.1971 137.6 112.874C151.759 121.049 173.856 133.807 173.856 133.807" stroke="#F5EBC9" stroke-width="1.00012"/>
<path opacity="0.508475" d="M21.0635 120.816C21.0635 120.816 8.33947 97.2854 35.7623 53.3997C57.934 17.9176 80.7148 16.5727 98.8625 27.9127C128.671 46.5392 107.147 95.4091 137.129 114.144C150.994 122.808 172.633 136.329 172.633 136.329" stroke="#F5EBC9" stroke-width="1.00012"/>
<path opacity="0.525424" d="M20.385 118.014C20.385 118.014 8.48992 94.0536 37.4276 51.1517C60.8241 16.465 83.638 15.916 101.379 27.8824C130.519 47.5379 107.303 95.6269 136.613 115.397C150.167 124.539 171.32 138.807 171.32 138.807" stroke="#F5EBC9" stroke-width="1.00012"/>
<path opacity="0.542373" d="M19.8061 115.19C19.8061 115.19 8.75441 90.8289 39.1718 48.963C63.7645 15.114 86.5837 15.3615 103.896 27.9398C132.333 48.6003 107.452 95.8497 136.054 116.63C149.281 126.24 169.924 141.238 169.924 141.238" stroke="#F5EBC9" stroke-width="1.00012"/>
<path opacity="0.559322" d="M19.3253 112.348C19.3253 112.348 9.13054 87.6162 40.9905 46.8374C66.7495 13.8673 89.5462 14.911 106.409 28.0858C134.108 49.7262 107.593 96.0785 135.453 117.845C148.336 127.91 168.442 143.619 168.442 143.619" stroke="#F5EBC9" stroke-width="1.00012"/>
<path opacity="0.576271" d="M18.9442 109.49C18.9442 109.49 9.61883 84.4177 42.8825 44.7756C69.7765 12.7245 92.5229 14.5632 108.916 28.3185C135.842 50.9123 107.726 96.3111 134.809 119.036C147.333 129.545 166.879 145.947 166.879 145.947" stroke="#F5EBC9" stroke-width="1.00012"/>
<path opacity="0.59322" d="M18.6625 106.621C18.6625 106.621 10.2179 81.2383 44.8448 42.7812C72.841 11.6883 95.5093 14.3197 111.412 28.6387C137.533 52.1585 107.85 96.5483 134.123 120.205C146.273 131.145 165.235 148.218 165.235 148.218" stroke="#F5EBC9" stroke-width="1.00012"/>
<path opacity="0.610169" d="M18.4819 103.744C18.4819 103.744 10.9282 78.0821 46.8761 40.857C75.9404 10.76 98.5031 14.1809 113.897 29.0462C139.181 53.4633 107.967 96.7901 133.398 121.349C145.159 132.706 163.513 150.431 163.513 150.431" stroke="#F5EBC9" stroke-width="1.00012"/>
<path opacity="0.627119" d="M18.401 100.862C18.401 100.862 11.7475 74.9522 48.9726 39.0042C79.0696 9.93995 101.499 14.1462 116.364 29.5396C140.781 54.8243 108.074 97.0354 132.633 122.467C143.99 134.228 161.715 152.582 161.715 152.582" stroke="#F5EBC9" stroke-width="1.00012"/>
<path opacity="0.644068" d="M18.4214 97.9794C18.4214 97.9794 12.6762 71.8529 51.1333 37.226C82.2263 9.22983 104.495 14.2163 118.814 30.1192C142.334 56.2405 108.173 97.2844 131.83 123.558C142.77 135.708 159.843 154.669 159.843 154.669" stroke="#F5EBC9" stroke-width="1.00012"/>
<path opacity="0.661017" d="M18.5431 95.0995C18.5431 95.0995 13.7132 68.7884 53.3553 35.5247C85.4063 8.6307 107.488 14.3913 121.243 30.7842C143.837 57.7105 108.265 97.5372 130.99 124.62C141.499 137.144 157.9 156.69 157.9 156.69" stroke="#F5EBC9" stroke-width="1.00012"/>
<path opacity="0.677966" d="M18.7647 92.2252C18.7647 92.2252 14.856 65.7615 55.6348 33.9016C88.6049 8.14255 110.472 14.6703 123.647 31.5332C145.287 59.2317 108.346 97.7926 130.113 125.652C140.178 138.536 155.887 158.642 155.887 158.642" stroke="#F5EBC9" stroke-width="1.00012"/>
<path opacity="0.694915" d="M19.086 89.3603C19.086 89.3603 16.1032 62.7763 57.9691 32.359C91.8181 7.76625 113.444 15.0532 126.022 32.3656C146.683 60.8024 108.419 98.0507 129.2 126.653C138.809 139.88 153.807 160.522 153.807 160.522" stroke="#F5EBC9" stroke-width="1.00012"/>
<path opacity="0.711864" d="M19.5069 86.5081C19.5069 86.5081 17.4537 59.8363 60.3556 30.8985C95.0423 7.50208 116.401 15.5393 128.367 33.2802C148.023 62.4207 108.482 98.3109 128.252 127.621C137.394 141.175 151.662 162.328 151.662 162.328" stroke="#F5EBC9" stroke-width="1.00012"/>
<path opacity="0.728814" d="M20.0271 83.6724C20.0271 83.6724 18.906 56.9452 62.7917 29.5224C98.2738 7.35071 119.339 16.1284 130.679 34.2761C149.305 64.0848 108.536 98.5732 127.271 128.555C135.935 142.42 149.456 164.059 149.456 164.059" stroke="#F5EBC9" stroke-width="1.00012"/>
<path opacity="0.745763" d="M20.6457 80.8572C20.6457 80.8572 20.458 54.1071 65.274 28.2326C101.508 7.31273 122.254 16.8202 132.954 35.3527C150.529 65.7933 108.581 98.8378 126.258 129.456C134.433 143.614 147.19 165.712 147.19 165.712" stroke="#F5EBC9" stroke-width="1.00012"/>
<path opacity="0.762712" d="M21.3633 78.0652C21.3633 78.0652 22.1093 51.3249 67.8011 27.0302C104.743 7.38766 125.145 17.6134 135.191 36.5079C151.693 67.5433 108.617 99.1038 125.215 130.32C132.891 144.755 144.87 167.284 144.87 167.284" stroke="#F5EBC9" stroke-width="1.00012"/>
<path opacity="0.779661" d="M22.177 75.2995C22.177 75.2995 23.8558 48.6016 70.3676 25.9163C107.973 7.57495 128.005 18.5064 137.386 37.7401C152.794 69.3325 108.644 99.3704 124.142 131.147C131.309 145.841 142.494 168.775 142.494 168.775" stroke="#F5EBC9" stroke-width="1.00012"/>
<path opacity="0.79661" d="M23.0877 72.5645C23.0877 72.5645 25.6972 45.9414 72.9723 24.8932C111.195 7.87543 130.833 19.4994 139.537 39.0487C153.834 71.1596 108.662 99.6384 123.041 131.936C129.691 146.872 140.069 170.182 140.069 170.182" stroke="#F5EBC9" stroke-width="1.00012"/>
<path opacity="0.813559" d="M24.0923 69.8622C24.0923 69.8622 27.6294 43.3464 75.6103 23.9609C114.403 8.28743 133.624 20.5897 141.64 40.4308C154.808 73.0211 108.669 99.9061 121.913 132.686C128.038 147.845 137.596 171.502 137.596 171.502" stroke="#F5EBC9" stroke-width="1.00012"/>
<path opacity="0.830508" d="M25.1908 67.1967C25.1908 67.1967 29.6511 40.8204 78.2793 23.1212C117.596 8.81116 136.375 21.7767 143.694 41.8855C155.716 74.9155 108.668 100.174 120.76 133.396C126.351 148.759 135.078 172.736 135.078 172.736" stroke="#F5EBC9" stroke-width="1.00012"/>
<path opacity="0.847458" d="M26.3811 64.5713C26.3811 64.5713 31.7592 38.3668 80.9755 22.3755C120.767 9.44629 139.083 23.0593 145.696 43.4113C156.558 76.8408 108.656 100.442 119.581 134.066C124.634 149.615 132.518 173.882 132.518 173.882" stroke="#F5EBC9" stroke-width="1.00012"/>
<path opacity="0.864407" d="M27.6643 61.9894C27.6643 61.9894 33.9536 35.9885 83.698 21.7245C123.917 10.1919 141.746 24.4359 147.645 45.0063C157.333 78.7944 108.637 100.709 118.382 134.694C122.889 150.41 129.922 174.937 129.922 174.937" stroke="#F5EBC9" stroke-width="1.00012"/>
<path opacity="0.881356" d="M29.0353 59.4534C29.0353 59.4534 36.2283 33.6879 86.4402 21.1686C127.037 11.0467 144.358 25.9042 149.535 46.6679C158.039 80.7736 108.608 100.976 117.161 135.28C121.116 151.143 127.289 175.901 127.289 175.901" stroke="#F5EBC9" stroke-width="1.00012"/>
<path opacity="0.898305" d="M30.4933 56.9666C30.4933 56.9666 38.581 31.4678 89.1993 20.7086C130.125 12.0096 146.917 27.4626 151.366 48.3943C158.674 82.776 108.568 101.241 115.919 135.822C119.318 151.814 124.623 176.772 124.623 176.772" stroke="#F5EBC9" stroke-width="1.00012"/>
<path opacity="0.915254" d="M32.0381 54.5331C32.0381 54.5331 41.0108 29.3321 91.9737 20.346C133.178 13.0806 149.421 29.1102 153.137 50.1845C159.24 84.8003 108.52 101.505 114.66 136.322C117.499 152.423 121.929 177.551 121.929 177.551" stroke="#F5EBC9" stroke-width="1.00012"/>
<path opacity="0.932203" d="M33.6678 52.1543C33.6678 52.1543 43.5146 27.2818 94.7601 20.0797C136.193 14.2567 151.866 30.8434 154.844 52.0346C159.736 86.8423 108.464 101.767 113.385 136.777C115.66 152.967 119.211 178.234 119.211 178.234" stroke="#F5EBC9" stroke-width="1.00012"/>
<path opacity="0.949153" d="M35.3786 49.8343C35.3786 49.8343 46.0874 25.3206 97.553 19.9113C139.163 15.5379 154.249 32.6615 156.485 53.9436C160.16 88.9009 108.398 102.027 112.093 137.188C113.802 153.447 116.47 178.823 116.47 178.823" stroke="#F5EBC9" stroke-width="1.00012"/>
<path opacity="0.966102" d="M37.1684 47.575C37.1684 47.575 48.7262 23.4499 100.349 19.8401C142.087 16.9215 156.565 34.5611 158.058 55.9084C160.51 90.9725 108.322 102.284 110.788 137.552C111.928 153.862 113.708 179.315 113.708 179.315" stroke="#F5EBC9" stroke-width="1.00012"/>
<path opacity="0.983051" d="M39.0373 45.3797C39.0373 45.3797 51.4301 21.6727 103.148 19.8667C144.962 18.4065 158.816 36.5406 159.562 57.927C160.789 93.0553 108.238 102.539 109.472 137.871C110.042 154.211 110.933 179.711 110.933 179.711" stroke="#F5EBC9" stroke-width="1.00012"/>
<path d="M40.9814 43.2508C40.9814 43.2508 54.194 19.9907 105.943 19.9907C147.783 19.9907 160.995 38.5973 160.995 59.9967C160.995 95.1465 108.145 102.79 108.145 138.144C108.145 154.494 108.145 180.009 108.145 180.009" stroke="#F5EBC9" stroke-width="1.00012"/>
</svg>
