<svg width="201" height="200" viewBox="0 0 201 200" fill="none" xmlns="http://www.w3.org/2000/svg">
<path opacity="0.0169492" d="M71.8536 194.997C71.8536 194.997 40.35 193.016 13.5814 138.132C-8.06139 93.7578 4.83778 70.1201 27.5335 59.0507C64.8125 40.8685 100.257 92.9663 137.753 74.6783C155.093 66.2212 182.154 53.0225 182.154 53.0225" stroke="#F5EBC9" stroke-width="1.18014"/>
<path opacity="0.0338983" d="M68.6247 193.924C68.6247 193.924 37.2094 190.845 12.3725 135.06C-7.70842 89.9574 6.00783 66.7842 29.076 56.5136C66.9669 39.6435 100.572 92.9466 138.683 75.9783C156.307 68.1315 183.813 55.8853 183.813 55.8853" stroke="#F5EBC9" stroke-width="1.18014"/>
<path opacity="0.0508475" d="M65.4375 192.737C65.4375 192.737 34.1488 188.563 11.2739 131.946C-7.22073 86.1697 7.29589 63.4894 30.7085 54.0301C69.165 38.4927 100.889 92.936 139.57 77.3082C157.457 70.0812 185.373 58.8024 185.373 58.8024" stroke="#F5EBC9" stroke-width="1.18014"/>
<path opacity="0.0677966" d="M62.2926 191.441C62.2926 191.441 31.1686 186.178 10.2835 128.796C-6.60229 82.4029 8.69702 60.243 32.4255 51.6066C71.4008 37.4207 101.206 92.9381 140.408 78.6696C158.537 72.0713 186.829 61.7737 186.829 61.7737" stroke="#F5EBC9" stroke-width="1.18014"/>
<path opacity="0.0847458" d="M59.1934 190.036C59.1934 190.036 28.272 183.689 9.40224 125.614C-5.85419 78.6597 10.2092 57.0473 34.2246 49.2442C73.6713 36.4272 101.521 92.9509 141.197 80.0593C159.545 74.0977 188.179 64.7937 188.179 64.7937" stroke="#F5EBC9" stroke-width="1.18014"/>
<path opacity="0.101695" d="M56.1473 188.523C56.1473 188.523 25.4663 181.101 8.63477 122.403C-4.97367 74.9444 11.8342 53.9057 36.1073 46.9455C75.9773 35.513 101.837 92.9742 141.939 81.4751C160.484 76.1575 189.426 67.8585 189.426 67.8585" stroke="#F5EBC9" stroke-width="1.18014"/>
<path opacity="0.118644" d="M53.156 186.904C53.156 186.904 22.7527 178.416 7.97996 119.166C-3.96392 71.2619 13.5679 50.8227 38.0691 44.7138C78.3138 34.6797 102.152 93.0084 142.631 82.9159C161.35 78.2487 190.564 70.9648 190.564 70.9648" stroke="#F5EBC9" stroke-width="1.18014"/>
<path opacity="0.135593" d="M50.2211 185.184C50.2211 185.184 20.1325 175.64 7.43662 115.911C-2.82816 67.6186 15.4063 47.8036 40.1058 42.5536C80.6762 33.9301 102.464 93.0552 143.271 84.3815C162.141 80.3705 191.592 74.1106 191.592 74.1106" stroke="#F5EBC9" stroke-width="1.18014"/>
<path opacity="0.152542" d="M47.3492 183.36C47.3492 183.36 17.612 172.773 7.00839 112.636C-1.56477 64.0155 17.3501 44.849 42.2178 40.4642C83.0644 33.2618 102.776 93.1113 143.86 85.8671C162.859 82.517 192.51 77.2888 192.51 77.2888" stroke="#F5EBC9" stroke-width="1.18014"/>
<path opacity="0.169492" d="M44.543 181.438C44.543 181.438 15.1935 169.819 6.69501 109.35C-0.176085 60.4592 19.3962 41.9645 44.4017 38.4502C85.4748 32.6778 103.086 93.1788 144.398 87.3727C163.502 84.6878 193.318 80.4975 193.318 80.4975" stroke="#F5EBC9" stroke-width="1.18014"/>
<path opacity="0.186441" d="M41.8033 179.42C41.8033 179.42 12.8772 166.783 6.49424 106.054C1.33358 56.9534 21.5394 39.153 46.6523 36.5136C87.9019 32.1781 103.391 93.2568 144.88 88.8961C164.067 86.8795 194.01 83.7323 194.01 83.7323" stroke="#F5EBC9" stroke-width="1.18014"/>
<path opacity="0.20339" d="M39.1388 177.307C39.1388 177.307 10.6712 163.669 6.41163 102.754C2.96769 53.5031 23.7824 36.4188 48.9722 34.6573C90.3479 31.7641 103.696 93.3461 145.312 90.436C164.557 89.0903 194.592 86.99 194.592 86.99" stroke="#F5EBC9" stroke-width="1.18014"/>
<path opacity="0.220339" d="M36.5483 175.102C36.5483 175.102 8.57405 160.478 6.44295 99.4516C4.71994 50.1108 26.1182 33.7633 51.3541 32.882C92.8056 31.4345 103.996 93.4449 145.689 91.9889C164.969 91.3157 195.059 90.2649 195.059 90.2649" stroke="#F5EBC9" stroke-width="1.18014"/>
<path opacity="0.237288" d="M34.0367 172.808C34.0367 172.808 6.58984 157.217 6.58984 96.1529C6.58984 46.7821 28.5456 31.1913 53.7969 31.1913C95.2736 31.1913 104.293 93.5545 146.011 93.5545C165.303 93.5545 195.412 93.5545 195.412 93.5545" stroke="#F5EBC9" stroke-width="1.18014"/>
<path opacity="0.254237" d="M31.6059 170.427C31.6059 170.427 4.71989 153.888 6.85099 92.8612C8.57401 43.5205 31.0605 28.7054 56.2964 29.5867C97.7479 31.0342 104.585 93.6741 146.278 95.1301C165.558 95.8034 195.648 96.8541 195.648 96.8541" stroke="#F5EBC9" stroke-width="1.18014"/>
<path opacity="0.271186" d="M29.2599 167.965C29.2599 167.965 2.96744 150.497 7.22704 89.5823C10.671 40.3318 33.6608 26.3105 58.8506 28.0719C100.226 30.9652 104.873 93.8056 146.49 96.7157C165.735 98.0615 195.77 100.162 195.77 100.162" stroke="#F5EBC9" stroke-width="1.18014"/>
<path opacity="0.288136" d="M27.0026 165.42C27.0026 165.42 1.33574 147.046 7.71865 86.3165C12.8793 37.2161 36.3445 24.0057 61.4574 26.6452C102.707 30.9807 105.158 93.945 146.648 98.3057C165.834 100.322 195.778 103.47 195.778 103.47" stroke="#F5EBC9" stroke-width="1.18014"/>
<path opacity="0.305085" d="M24.8331 162.799C24.8331 162.799 -0.176861 143.54 8.32159 83.0703C15.1927 34.1799 39.1046 21.7965 64.1101 25.3108C105.183 31.0833 105.436 94.0948 146.748 99.9008C165.852 102.586 195.667 106.776 195.667 106.776" stroke="#F5EBC9" stroke-width="1.18014"/>
<path opacity="0.322034" d="M22.7574 160.105C22.7574 160.105 -1.56515 139.985 9.03849 79.8487C17.6116 31.2279 41.9412 19.6866 66.8088 24.0714C107.655 31.2738 105.709 94.2557 146.793 101.5C165.792 104.85 195.443 110.078 195.443 110.078" stroke="#F5EBC9" stroke-width="1.18014"/>
<path opacity="0.338983" d="M20.7777 157.338C20.7777 157.338 -2.82783 136.382 9.86807 76.6522C20.1328 28.3603 44.8503 17.675 69.5498 22.9251C110.12 31.5486 105.976 94.4242 146.783 103.098C165.653 107.109 195.104 113.369 195.104 113.369" stroke="#F5EBC9" stroke-width="1.18014"/>
<path opacity="0.355932" d="M18.8952 154.504C18.8952 154.504 -3.96458 132.737 10.8081 73.4865C22.752 25.5822 47.8273 15.7661 72.3286 21.875C112.573 31.9091 106.238 94.6018 146.717 104.694C165.436 109.361 194.65 116.645 194.65 116.645" stroke="#F5EBC9" stroke-width="1.18014"/>
<path opacity="0.372881" d="M17.1121 151.607C17.1121 151.607 -4.97408 129.055 11.8574 70.3563C25.4659 22.898 50.8685 13.963 75.1416 20.9232C115.012 32.3557 106.492 94.7891 146.594 106.288C165.139 111.606 194.081 119.905 194.081 119.905" stroke="#F5EBC9" stroke-width="1.18014"/>
<path opacity="0.38983" d="M15.4326 148.649C15.4326 148.649 -5.85308 125.34 13.0167 67.2645C28.2731 20.3101 53.9721 12.2671 77.9875 20.0701C117.434 32.8872 106.741 94.9852 146.417 107.877C164.765 113.838 193.4 123.142 193.4 123.142" stroke="#F5EBC9" stroke-width="1.18014"/>
<path opacity="0.40678" d="M13.858 145.635C13.858 145.635 -6.60123 121.597 14.2839 64.2157C31.1697 17.8223 57.1337 10.6811 80.8622 19.3175C119.838 33.5034 106.984 95.1904 146.186 109.459C164.314 116.057 192.607 126.355 192.607 126.355" stroke="#F5EBC9" stroke-width="1.18014"/>
<path opacity="0.423729" d="M12.3877 142.567C12.3877 142.567 -7.22014 117.83 15.6548 61.2122C34.1494 15.4363 60.3469 9.20557 83.7595 18.6649C122.216 34.2023 107.217 95.4031 145.897 111.031C163.785 118.258 191.701 129.537 191.701 129.537" stroke="#F5EBC9" stroke-width="1.18014"/>
<path opacity="0.440678" d="M11.0241 139.45C11.0241 139.45 -7.70846 114.043 17.1285 58.2586C37.2094 13.1561 63.6083 7.84341 86.6765 18.114C124.567 34.9841 107.442 95.6242 145.553 112.592C163.177 120.439 190.683 132.685 190.683 132.685" stroke="#F5EBC9" stroke-width="1.18014"/>
<path opacity="0.457627" d="M9.77259 136.287C9.77259 136.287 -8.06193 110.242 18.7067 55.3581C40.3495 10.9839 66.9177 6.59576 89.6134 17.6652C126.892 35.8474 107.661 95.8529 145.157 114.141C162.496 122.598 189.558 135.797 189.558 135.797" stroke="#F5EBC9" stroke-width="1.18014"/>
<path opacity="0.474576" d="M8.6316 133.082C8.6316 133.082 -8.28311 106.43 20.3847 52.5142C43.5629 8.92235 70.2681 5.46411 92.5637 17.3189C129.185 36.791 107.871 96.0888 144.706 115.674C161.74 124.731 188.324 138.866 188.324 138.866" stroke="#F5EBC9" stroke-width="1.18014"/>
<path opacity="0.491525" d="M7.60268 129.839C7.60268 129.839 -8.3716 102.614 22.1604 49.7308C46.8458 6.97442 73.6554 4.45028 95.5237 17.0759C131.444 37.8143 108.073 96.3321 144.202 117.191C160.909 126.837 186.984 141.891 186.984 141.891" stroke="#F5EBC9" stroke-width="1.18014"/>
<path opacity="0.508475" d="M6.68934 126.563C6.68934 126.563 -8.32506 98.7963 24.0339 47.0112C50.1964 5.14236 77.0778 3.55541 98.4921 16.9365C133.666 38.9159 108.268 96.5824 143.647 118.69C160.007 128.913 185.541 144.868 185.541 144.868" stroke="#F5EBC9" stroke-width="1.18014"/>
<path opacity="0.525424" d="M5.88827 123.257C5.88827 123.257 -8.14795 94.9833 25.9986 44.3591C53.6064 3.42879 80.5268 2.78095 101.461 16.9013C135.847 40.0948 108.451 96.8398 143.037 120.168C159.031 130.956 183.992 147.793 183.992 147.793" stroke="#F5EBC9" stroke-width="1.18014"/>
<path opacity="0.542373" d="M5.20497 119.924C5.20497 119.924 -7.83597 91.1783 28.0565 41.7765C57.0759 1.83471 84.0026 2.12677 104.431 16.9691C137.987 41.3485 108.627 97.1028 142.378 121.624C157.986 132.964 182.344 150.661 182.344 150.661" stroke="#F5EBC9" stroke-width="1.18014"/>
<path opacity="0.559322" d="M4.63721 116.571C4.63721 116.571 -7.39256 87.3871 30.2021 39.2681C60.5979 0.363378 87.4979 1.59499 107.396 17.1412C140.08 42.6769 108.793 97.3726 141.667 123.057C156.87 134.934 180.595 153.471 180.595 153.471" stroke="#F5EBC9" stroke-width="1.18014"/>
<path opacity="0.576271" d="M4.18762 113.199C4.18762 113.199 -6.81633 83.6134 32.4348 36.8357C64.1698 -0.984514 91.0104 1.18515 110.354 17.4164C142.127 44.0771 108.95 97.6476 140.908 124.463C155.687 136.864 178.751 156.217 178.751 156.217" stroke="#F5EBC9" stroke-width="1.18014"/>
<path opacity="0.59322" d="M3.85597 109.813C3.85597 109.813 -6.10874 79.8611 34.751 34.4817C67.7865 -2.20795 94.5351 0.897114 113.3 17.7935C144.124 45.5469 109.097 97.9269 140.1 125.842C154.437 138.751 176.812 158.897 176.812 158.897" stroke="#F5EBC9" stroke-width="1.18014"/>
<path opacity="0.610169" d="M3.64205 106.418C3.64205 106.418 -5.27129 76.137 37.1473 32.2113C71.4431 -3.30313 98.0671 0.73356 116.231 18.2746C146.067 47.0867 109.234 98.2124 139.244 127.192C153.121 140.594 174.779 161.509 174.779 161.509" stroke="#F5EBC9" stroke-width="1.18014"/>
<path opacity="0.627119" d="M3.54764 103.017C3.54764 103.017 -4.30348 72.4432 39.6222 30.0246C75.1366 -4.27125 101.603 0.692133 119.144 18.8564C147.957 48.6923 109.362 98.5013 138.342 128.511C151.743 142.388 172.658 164.047 172.658 164.047" stroke="#F5EBC9" stroke-width="1.18014"/>
<path opacity="0.644068" d="M3.57061 99.6157C3.57061 99.6157 -3.20871 68.7865 42.1706 27.9267C78.8603 -5.10879 105.138 0.775253 122.034 19.5406C149.788 50.3638 109.478 98.7956 137.393 129.798C150.302 144.135 170.448 166.51 170.448 166.51" stroke="#F5EBC9" stroke-width="1.18014"/>
<path opacity="0.661017" d="M3.71477 96.2179C3.71477 96.2179 -1.9845 65.1708 44.7932 25.9197C82.6134 -5.81527 108.67 0.982262 124.901 20.3259C151.562 52.0989 109.586 99.0944 136.402 131.052C148.803 145.831 168.156 168.895 168.156 168.895" stroke="#F5EBC9" stroke-width="1.18014"/>
<path opacity="0.677966" d="M3.9761 92.8257C3.9761 92.8257 -0.636167 61.5986 47.4829 24.0039C86.3876 -6.3918 112.191 1.31094 127.737 21.2092C153.273 53.8933 109.683 99.3953 135.367 132.27C147.244 147.472 165.781 171.198 165.781 171.198" stroke="#F5EBC9" stroke-width="1.18014"/>
<path opacity="0.694915" d="M4.35551 89.4452C4.35551 89.4452 0.835868 58.0762 50.2376 22.1837C90.1795 -6.83571 115.698 1.76284 130.54 22.1916C154.92 55.747 109.768 99.6999 134.29 133.451C145.629 149.058 163.326 173.416 163.326 173.416" stroke="#F5EBC9" stroke-width="1.18014"/>
<path opacity="0.711864" d="M4.85102 86.0797C4.85102 86.0797 2.42828 54.6069 53.0526 20.4604C93.9828 -7.14739 119.186 2.33651 133.306 23.2708C156.5 57.6565 109.842 100.007 133.17 134.593C143.958 150.587 160.795 175.548 160.795 175.548" stroke="#F5EBC9" stroke-width="1.18014"/>
<path opacity="0.728814" d="M5.46552 82.7333C5.46552 82.7333 4.14264 51.1952 55.9278 18.8362C97.7966 -7.32632 122.653 3.03137 136.034 24.4457C158.014 59.6199 109.906 100.316 132.013 135.695C142.237 152.056 158.192 177.589 158.192 177.589" stroke="#F5EBC9" stroke-width="1.18014"/>
<path opacity="0.745763" d="M6.19609 79.4113C6.19609 79.4113 5.97467 47.8462 58.8576 17.3143C101.614 -7.37116 126.094 3.8477 138.72 25.7159C159.458 61.6359 109.959 100.628 130.819 136.757C140.465 153.465 155.519 179.539 155.519 179.539" stroke="#F5EBC9" stroke-width="1.18014"/>
<path opacity="0.762712" d="M7.04177 76.1174C7.04177 76.1174 7.9221 44.5639 61.8383 15.8961C105.43 -7.28211 129.504 4.78426 141.358 27.0798C160.831 63.7016 110.002 100.943 129.587 137.778C138.644 154.812 152.779 181.396 152.779 181.396" stroke="#F5EBC9" stroke-width="1.18014"/>
<path opacity="0.779661" d="M8.00359 72.8532C8.00359 72.8532 9.98459 41.3495 64.8685 14.5809C109.243 -7.06187 132.88 5.83729 143.95 28.533C162.132 65.812 110.034 101.257 128.322 138.753C136.779 156.092 149.978 183.154 149.978 183.154" stroke="#F5EBC9" stroke-width="1.18014"/>
<path opacity="0.79661" d="M9.07673 69.6257C9.07673 69.6257 12.156 38.2104 67.9406 13.3735C113.043 -6.70744 136.216 7.00881 146.487 30.077C163.357 67.9679 110.054 101.573 127.022 139.684C134.869 157.308 147.115 184.814 147.115 184.814" stroke="#F5EBC9" stroke-width="1.18014"/>
<path opacity="0.813559" d="M10.2632 66.4375C10.2632 66.4375 14.437 35.1488 71.0544 12.2739C116.83 -6.22073 139.511 8.29589 148.97 31.7085C164.507 70.165 110.064 101.889 125.692 140.57C132.919 158.457 144.198 186.373 144.198 186.373" stroke="#F5EBC9" stroke-width="1.18014"/>
<path opacity="0.830508" d="M11.5593 63.2921C11.5593 63.2921 16.8224 32.1681 74.2037 11.283C120.597 -5.60278 142.757 9.69653 151.393 33.425C165.579 72.4004 110.062 102.205 124.33 141.407C130.929 159.536 141.226 187.829 141.226 187.829" stroke="#F5EBC9" stroke-width="1.18014"/>
<path opacity="0.847458" d="M12.963 60.1938C12.963 60.1938 19.3092 29.2725 77.3844 10.4027C124.339 -4.8537 145.951 11.2097 153.754 35.2251C166.571 74.6718 110.048 102.521 122.939 142.197C128.901 160.545 138.205 189.18 138.205 189.18" stroke="#F5EBC9" stroke-width="1.18014"/>
<path opacity="0.864407" d="M14.4785 57.1473C14.4785 57.1473 21.8999 26.4663 80.5983 9.63477C128.057 -3.97367 149.095 12.8342 156.055 37.1073C167.488 76.9773 110.027 102.837 121.526 142.939C126.843 161.484 135.142 190.426 135.142 190.426" stroke="#F5EBC9" stroke-width="1.18014"/>
<path opacity="0.881356" d="M16.0961 54.155C16.0961 54.155 24.5837 23.7517 83.8338 8.97899C131.738 -2.9649 152.177 14.5669 158.286 39.0681C168.32 79.3129 109.992 103.151 120.084 143.63C124.751 162.349 132.035 191.563 132.035 191.563" stroke="#F5EBC9" stroke-width="1.18014"/>
<path opacity="0.898305" d="M17.8159 51.2211C17.8159 51.2211 27.3595 21.1325 87.089 8.43662C135.381 -1.82816 155.196 16.4063 160.446 41.1058C169.069 81.6762 109.944 103.464 118.618 144.271C122.629 163.141 128.889 192.592 128.889 192.592" stroke="#F5EBC9" stroke-width="1.18014"/>
<path opacity="0.915254" d="M19.6391 48.3492C19.6391 48.3492 30.227 18.612 90.3632 8.00839C138.984 -0.564769 158.15 18.3501 162.535 43.2178C169.738 84.0644 109.888 103.776 117.132 144.86C120.482 163.859 125.711 193.51 125.711 193.51" stroke="#F5EBC9" stroke-width="1.18014"/>
<path opacity="0.932203" d="M21.5611 45.5421C21.5611 45.5421 33.1803 16.1925 93.6499 7.69403C142.54 0.822939 161.035 20.3952 164.549 45.4008C170.322 86.4739 109.821 104.085 115.627 145.397C118.312 164.501 122.502 194.317 122.502 194.317" stroke="#F5EBC9" stroke-width="1.18014"/>
<path opacity="0.949153" d="M23.5809 42.8043C23.5809 42.8043 36.2173 13.8781 96.9467 7.49521C146.047 2.33456 163.847 22.5404 166.487 47.6533C170.822 88.9029 109.744 104.392 114.104 145.881C116.121 165.068 119.268 195.011 119.268 195.011" stroke="#F5EBC9" stroke-width="1.18014"/>
<path opacity="0.966102" d="M25.6929 40.1388C25.6929 40.1388 39.3311 11.6712 100.246 7.41163C149.497 3.96769 166.581 24.7824 168.343 49.9722C171.236 91.3479 109.654 104.696 112.564 146.312C113.91 165.557 116.01 195.592 116.01 195.592" stroke="#F5EBC9" stroke-width="1.18014"/>
<path opacity="0.983051" d="M27.8983 37.5478C27.8983 37.5478 42.5217 9.57357 103.548 7.44247C152.889 5.71945 169.237 27.1177 170.118 52.3536C171.565 93.8051 109.555 104.995 111.011 146.688C111.684 165.968 112.735 196.059 112.735 196.059" stroke="#F5EBC9" stroke-width="1.18014"/>
<path d="M30.1924 35.0357C30.1924 35.0357 45.7832 7.58887 106.847 7.58887C156.218 7.58887 171.809 29.5446 171.809 54.7959C171.809 96.2727 109.446 105.292 109.446 147.01C109.446 166.302 109.446 196.411 109.446 196.411" stroke="#F5EBC9" stroke-width="1.18014"/>
</svg>
