<svg width="201" height="201" viewBox="0 0 201 201" fill="none" xmlns="http://www.w3.org/2000/svg">
<path opacity="0.0169492" d="M192.176 139.249L41.3406 128.702L125.893 3.3477" stroke="#F5EBC9" stroke-width="0.818416"/>
<path opacity="0.0338983" d="M190.751 142.435L40.3749 126.63L129.25 4.30361" stroke="#F5EBC9" stroke-width="0.818416"/>
<path opacity="0.0508475" d="M189.214 145.57L39.4817 124.527L132.572 5.37599" stroke="#F5EBC9" stroke-width="0.818416"/>
<path opacity="0.0677966" d="M187.57 148.649L38.6631 122.393L135.855 6.56371" stroke="#F5EBC9" stroke-width="0.818416"/>
<path opacity="0.0847458" d="M185.819 151.67L37.9189 120.232L139.094 7.86582" stroke="#F5EBC9" stroke-width="0.818416"/>
<path opacity="0.101695" d="M183.964 154.626L37.2511 118.047L142.286 9.27964" stroke="#F5EBC9" stroke-width="0.818416"/>
<path opacity="0.118644" d="M182.006 157.517L36.6594 115.839L145.427 10.8042" stroke="#F5EBC9" stroke-width="0.818416"/>
<path opacity="0.135593" d="M179.948 160.337L36.1447 113.613L148.511 12.4372" stroke="#F5EBC9" stroke-width="0.818416"/>
<path opacity="0.152542" d="M177.794 163.084L35.7087 111.369L151.538 14.1771" stroke="#F5EBC9" stroke-width="0.818416"/>
<path opacity="0.169492" d="M175.545 165.754L35.3513 109.112L154.502 16.0216" stroke="#F5EBC9" stroke-width="0.818416"/>
<path opacity="0.186441" d="M173.205 168.344L35.073 106.844L157.4 17.9682" stroke="#F5EBC9" stroke-width="0.818416"/>
<path opacity="0.20339" d="M170.775 170.85L34.8737 104.567L160.228 20.0146" stroke="#F5EBC9" stroke-width="0.818416"/>
<path opacity="0.220339" d="M168.259 173.271L34.7541 102.285L162.982 22.1588" stroke="#F5EBC9" stroke-width="0.818416"/>
<path opacity="0.237288" d="M165.661 175.602L34.7148 100L165.661 24.3979" stroke="#F5EBC9" stroke-width="0.818416"/>
<path opacity="0.254237" d="M162.983 177.841L34.7547 97.715L168.26 26.7289" stroke="#F5EBC9" stroke-width="0.818416"/>
<path opacity="0.271186" d="M160.228 179.985L34.8743 95.4327L170.776 29.1491" stroke="#F5EBC9" stroke-width="0.818416"/>
<path opacity="0.288136" d="M157.4 182.032L35.0735 93.1563L173.205 31.656" stroke="#F5EBC9" stroke-width="0.818416"/>
<path opacity="0.305085" d="M154.501 183.978L35.3509 90.8876L175.545 34.2455" stroke="#F5EBC9" stroke-width="0.818416"/>
<path opacity="0.322034" d="M151.538 185.823L35.7092 88.6305L177.795 36.9156" stroke="#F5EBC9" stroke-width="0.818416"/>
<path opacity="0.338983" d="M148.512 187.563L36.1453 86.3874L179.949 39.6627" stroke="#F5EBC9" stroke-width="0.818416"/>
<path opacity="0.355932" d="M145.426 189.195L36.6589 84.1602L182.006 42.4827" stroke="#F5EBC9" stroke-width="0.818416"/>
<path opacity="0.372881" d="M142.286 190.72L37.2509 81.9531L183.964 45.3735" stroke="#F5EBC9" stroke-width="0.818416"/>
<path opacity="0.38983" d="M139.094 192.134L37.919 79.7676L185.819 48.3304" stroke="#F5EBC9" stroke-width="0.818416"/>
<path opacity="0.40678" d="M135.855 193.436L38.6631 77.6067L187.57 51.3504" stroke="#F5EBC9" stroke-width="0.818416"/>
<path opacity="0.423729" d="M132.573 194.624L39.4822 75.4733L189.215 54.4297" stroke="#F5EBC9" stroke-width="0.818416"/>
<path opacity="0.440678" d="M129.251 195.696L40.3751 73.3691L190.751 57.564" stroke="#F5EBC9" stroke-width="0.818416"/>
<path opacity="0.457627" d="M125.893 196.652L41.341 71.2983L192.177 60.7508" stroke="#F5EBC9" stroke-width="0.818416"/>
<path opacity="0.474576" d="M122.504 197.49L42.3778 69.262L193.49 63.985" stroke="#F5EBC9" stroke-width="0.818416"/>
<path opacity="0.491525" d="M119.089 198.21L43.4866 67.263L194.691 67.263" stroke="#F5EBC9" stroke-width="0.818416"/>
<path opacity="0.508475" d="M115.649 198.81L44.6626 65.3043L195.775 70.5812" stroke="#F5EBC9" stroke-width="0.818416"/>
<path opacity="0.525424" d="M112.192 199.289L45.908 63.3875L196.744 73.9349" stroke="#F5EBC9" stroke-width="0.818416"/>
<path opacity="0.542373" d="M108.719 199.647L47.219 61.5153L197.595 77.3205" stroke="#F5EBC9" stroke-width="0.818416"/>
<path opacity="0.559322" d="M105.236 199.884L48.5941 59.6904L198.327 80.7339" stroke="#F5EBC9" stroke-width="0.818416"/>
<path opacity="0.576271" d="M101.746 200L50.0316 57.9145L198.939 84.1709" stroke="#F5EBC9" stroke-width="0.818416"/>
<path opacity="0.59322" d="M98.2557 199.993L51.531 56.1898L199.431 87.6268" stroke="#F5EBC9" stroke-width="0.818416"/>
<path opacity="0.610169" d="M94.7674 199.865L53.0899 54.5183L199.803 91.0979" stroke="#F5EBC9" stroke-width="0.818416"/>
<path opacity="0.627119" d="M91.2854 199.615L54.7059 52.9023L200.053 94.5798" stroke="#F5EBC9" stroke-width="0.818416"/>
<path opacity="0.644068" d="M87.8147 199.243L56.3776 51.3435L200.181 98.0681" stroke="#F5EBC9" stroke-width="0.818416"/>
<path opacity="0.661017" d="M84.3584 198.751L58.1021 49.8443L200.187 101.559" stroke="#F5EBC9" stroke-width="0.818416"/>
<path opacity="0.677966" d="M80.9225 198.139L59.879 48.4064L200.073 105.048" stroke="#F5EBC9" stroke-width="0.818416"/>
<path opacity="0.694915" d="M77.5085 197.406L61.7034 47.0305L199.835 108.531" stroke="#F5EBC9" stroke-width="0.818416"/>
<path opacity="0.711864" d="M74.1229 196.556L63.5754 45.7199L199.477 112.003" stroke="#F5EBC9" stroke-width="0.818416"/>
<path opacity="0.728814" d="M70.7691 195.587L65.4921 44.4751L198.997 115.461" stroke="#F5EBC9" stroke-width="0.818416"/>
<path opacity="0.745763" d="M67.4509 194.502L67.4509 43.2981L198.398 118.9" stroke="#F5EBC9" stroke-width="0.818416"/>
<path opacity="0.762712" d="M64.173 193.302L69.4499 42.1901L197.678 122.316" stroke="#F5EBC9" stroke-width="0.818416"/>
<path opacity="0.779661" d="M60.9384 191.988L71.4859 41.1527L196.84 125.705" stroke="#F5EBC9" stroke-width="0.818416"/>
<path opacity="0.79661" d="M57.752 190.563L73.5571 40.1874L195.884 129.063" stroke="#F5EBC9" stroke-width="0.818416"/>
<path opacity="0.813559" d="M54.6169 189.027L75.6605 39.2942L194.811 132.385" stroke="#F5EBC9" stroke-width="0.818416"/>
<path opacity="0.830508" d="M51.5383 187.382L77.7947 38.4751L193.624 135.667" stroke="#F5EBC9" stroke-width="0.818416"/>
<path opacity="0.847458" d="M48.5184 185.631L79.9556 37.7314L192.322 138.907" stroke="#F5EBC9" stroke-width="0.818416"/>
<path opacity="0.864407" d="M45.5616 183.776L82.1412 37.0631L190.908 142.098" stroke="#F5EBC9" stroke-width="0.818416"/>
<path opacity="0.881356" d="M42.6701 181.818L84.3476 36.4714L189.383 145.239" stroke="#F5EBC9" stroke-width="0.818416"/>
<path opacity="0.898305" d="M39.8503 179.761L86.575 35.9572L187.75 148.324" stroke="#F5EBC9" stroke-width="0.818416"/>
<path opacity="0.915254" d="M37.1039 177.607L88.8188 35.5212L186.011 151.35" stroke="#F5EBC9" stroke-width="0.818416"/>
<path opacity="0.932203" d="M34.4332 175.358L91.0753 35.1638L184.166 154.314" stroke="#F5EBC9" stroke-width="0.818416"/>
<path opacity="0.949153" d="M31.8439 173.017L93.3442 34.8855L182.22 157.212" stroke="#F5EBC9" stroke-width="0.818416"/>
<path opacity="0.966102" d="M29.3375 170.588L95.621 34.6862L180.173 160.04" stroke="#F5EBC9" stroke-width="0.818416"/>
<path opacity="0.983051" d="M26.9167 168.071L97.9027 34.5661L178.029 162.795" stroke="#F5EBC9" stroke-width="0.818416"/>
<path d="M24.5859 165.473L100.188 34.5264L175.79 165.473" stroke="#F5EBC9" stroke-width="0.818416"/>
</svg>
