<svg width="29" height="28" viewBox="0 0 29 28" fill="none" xmlns="http://www.w3.org/2000/svg">
<path d="M17.8079 18.4631C17.6854 19.5164 17.0468 20.3693 16.0578 20.7909C15.5037 21.0245 14.7636 21.1525 14.17 21.1145C13.2567 21.0764 12.4006 20.8502 11.6015 20.4484C11.3251 20.2963 10.8991 20.011 10.5741 19.7446C10.494 19.6685 10.4806 19.6304 10.5387 19.5517C10.5642 19.5055 10.6213 19.421 10.7383 19.25C10.9166 18.9978 10.9357 18.9645 10.9547 18.9321C11.0117 18.8503 11.0987 18.8428 11.1895 18.9075C11.202 18.9202 11.202 18.9202 11.2089 18.9263C11.221 18.9396 11.221 18.9396 11.2535 18.9644C11.2872 18.9902 11.3116 19.0024 11.3176 19.017C12.1739 19.6873 13.1706 20.0679 14.1769 20.1059C15.5736 20.0871 16.5773 19.4591 16.7622 18.4886C16.9526 17.4324 16.1202 16.5104 14.4924 15.9963C13.9796 15.8441 12.6891 15.3286 12.4508 15.1852C11.3352 14.5318 10.8115 13.6741 10.8876 12.6104C11.0018 11.1405 12.3674 10.0464 14.0934 10.0368C14.8595 10.0368 15.6317 10.1965 16.3643 10.5047C16.6285 10.6171 17.1001 10.8726 17.257 10.9947C17.3511 11.0644 17.3711 11.1405 17.3131 11.2257C17.2938 11.2777 17.237 11.3551 17.1389 11.5211C16.9959 11.7392 16.9906 11.7483 16.9647 11.7962C16.9137 11.8763 16.841 11.8827 16.744 11.8254C15.961 11.2928 15.0778 11.0263 14.1128 11.0073C12.9142 11.0263 12.0129 11.7407 11.9549 12.7196C11.9429 13.599 12.5997 14.2396 14.0219 14.722C16.9146 15.6539 18.0181 16.7427 17.8079 18.4631ZM14.2409 3.28817C16.1203 3.28817 17.6557 5.07141 17.7317 7.3069H10.7545C10.8217 5.07141 12.3616 3.28817 14.2409 3.28817ZM23.9819 7.73042C23.9819 7.49713 23.8013 7.3069 23.5709 7.3069H23.5558H19.0454C18.9313 4.35746 16.8216 2 14.2409 2C11.6587 2 9.55437 4.35746 9.44182 7.3069H4.91256C4.6854 7.31206 4.50516 7.49812 4.50516 7.73042C4.50516 7.74385 4.50516 7.74974 4.50516 7.76317H4.5L5.14331 21.9896C5.14331 22.0281 5.15084 22.0669 5.15084 22.1131C5.15084 22.1221 5.15207 22.1249 5.15207 22.1419V22.1636L5.15681 22.1712C5.25365 23.163 5.97022 23.9538 6.94955 23.9925V24H21.316C21.3236 24 21.328 24 21.3354 24C21.3466 24 21.3466 24 21.3548 24H21.3846V23.9925C22.3778 23.9683 23.191 23.163 23.2686 22.1603L23.2729 22.1419C23.2729 22.1324 23.2729 22.1222 23.2729 22.1131C23.2729 22.0842 23.2804 22.0657 23.2804 22.0356L23.9819 7.74974C23.9819 7.7445 23.9819 7.7364 23.9819 7.73042Z" fill="#EE4D2D"/>
</svg>
