<svg width="201" height="200" viewBox="0 0 201 200" fill="none" xmlns="http://www.w3.org/2000/svg">
<path opacity="0.0169492" d="M5.55411 67.4384L194.687 132.562" stroke="#F5EBC9" stroke-width="0.884018"/>
<path opacity="0.0338983" d="M6.74832 64.1581L193.493 135.843" stroke="#F5EBC9" stroke-width="0.884018"/>
<path opacity="0.0508475" d="M8.05558 60.9209L192.185 139.079" stroke="#F5EBC9" stroke-width="0.884018"/>
<path opacity="0.0677966" d="M9.47622 57.7317L190.765 142.268" stroke="#F5EBC9" stroke-width="0.884018"/>
<path opacity="0.0847458" d="M11.0056 54.5941L189.234 145.406" stroke="#F5EBC9" stroke-width="0.884018"/>
<path opacity="0.101695" d="M12.6449 51.512L187.595 148.489" stroke="#F5EBC9" stroke-width="0.884018"/>
<path opacity="0.118644" d="M14.3912 48.4886L185.851 151.512" stroke="#F5EBC9" stroke-width="0.884018"/>
<path opacity="0.135593" d="M16.2398 45.5279L183.999 154.472" stroke="#F5EBC9" stroke-width="0.884018"/>
<path opacity="0.152542" d="M18.1926 42.6337L182.048 157.366" stroke="#F5EBC9" stroke-width="0.884018"/>
<path opacity="0.169492" d="M20.2446 39.8096L179.996 160.191" stroke="#F5EBC9" stroke-width="0.884018"/>
<path opacity="0.186441" d="M22.3939 37.0585L177.847 162.942" stroke="#F5EBC9" stroke-width="0.884018"/>
<path opacity="0.20339" d="M24.6383 34.3841L175.603 165.616" stroke="#F5EBC9" stroke-width="0.884018"/>
<path opacity="0.220339" d="M26.9739 31.7898L173.267 168.21" stroke="#F5EBC9" stroke-width="0.884018"/>
<path opacity="0.237288" d="M29.3984 29.2788L170.841 170.722" stroke="#F5EBC9" stroke-width="0.884018"/>
<path opacity="0.254237" d="M31.9099 26.8532L168.33 173.146" stroke="#F5EBC9" stroke-width="0.884018"/>
<path opacity="0.271186" d="M34.5043 24.5179L165.736 175.483" stroke="#F5EBC9" stroke-width="0.884018"/>
<path opacity="0.288136" d="M37.1793 22.2738L163.063 177.727" stroke="#F5EBC9" stroke-width="0.884018"/>
<path opacity="0.305085" d="M39.9292 20.1241L160.311 179.875" stroke="#F5EBC9" stroke-width="0.884018"/>
<path opacity="0.322034" d="M42.7537 18.0722L157.486 181.928" stroke="#F5EBC9" stroke-width="0.884018"/>
<path opacity="0.338983" d="M45.6479 16.1201L154.592 183.88" stroke="#F5EBC9" stroke-width="0.884018"/>
<path opacity="0.355932" d="M48.6088 14.2698L151.632 185.729" stroke="#F5EBC9" stroke-width="0.884018"/>
<path opacity="0.372881" d="M51.6315 12.5251L148.608 187.476" stroke="#F5EBC9" stroke-width="0.884018"/>
<path opacity="0.38983" d="M54.7141 10.8861L145.526 189.115" stroke="#F5EBC9" stroke-width="0.884018"/>
<path opacity="0.40678" d="M57.8519 9.35572L142.388 190.645" stroke="#F5EBC9" stroke-width="0.884018"/>
<path opacity="0.423729" d="M61.0411 7.93554L139.199 192.065" stroke="#F5EBC9" stroke-width="0.884018"/>
<path opacity="0.440678" d="M64.2781 6.62827L135.963 193.373" stroke="#F5EBC9" stroke-width="0.884018"/>
<path opacity="0.457627" d="M67.5582 5.43399L132.682 194.566" stroke="#F5EBC9" stroke-width="0.884018"/>
<path opacity="0.474576" d="M70.879 4.35504L129.362 195.645" stroke="#F5EBC9" stroke-width="0.884018"/>
<path opacity="0.491525" d="M74.2341 3.3931L126.006 196.608" stroke="#F5EBC9" stroke-width="0.884018"/>
<path opacity="0.508475" d="M77.6223 2.54817L122.619 197.452" stroke="#F5EBC9" stroke-width="0.884018"/>
<path opacity="0.525424" d="M81.0362 1.82203L119.204 198.177" stroke="#F5EBC9" stroke-width="0.884018"/>
<path opacity="0.542373" d="M84.475 1.2163L115.767 198.784" stroke="#F5EBC9" stroke-width="0.884018"/>
<path opacity="0.559322" d="M87.9315 0.730449L112.309 199.27" stroke="#F5EBC9" stroke-width="0.884018"/>
<path opacity="0.576271" d="M91.4031 0.365263L108.837 199.635" stroke="#F5EBC9" stroke-width="0.884018"/>
<path opacity="0.59322" d="M94.886 0.121831L105.355 199.878" stroke="#F5EBC9" stroke-width="0.884018"/>
<path opacity="0.610169" d="M98.3746 0.000111993L101.866 200" stroke="#F5EBC9" stroke-width="0.884018"/>
<path opacity="0.627119" d="M101.866 -9.20811e-05L98.3746 200" stroke="#F5EBC9" stroke-width="0.884018"/>
<path opacity="0.644068" d="M105.355 0.122349L94.886 199.879" stroke="#F5EBC9" stroke-width="0.884018"/>
<path opacity="0.661017" d="M108.837 0.365467L91.4031 199.635" stroke="#F5EBC9" stroke-width="0.884018"/>
<path opacity="0.677966" d="M112.309 0.730097L87.9315 199.27" stroke="#F5EBC9" stroke-width="0.884018"/>
<path opacity="0.694915" d="M115.767 1.21596L84.475 198.784" stroke="#F5EBC9" stroke-width="0.884018"/>
<path opacity="0.711864" d="M119.204 1.82264L81.0362 198.178" stroke="#F5EBC9" stroke-width="0.884018"/>
<path opacity="0.728814" d="M122.619 2.54816L77.6223 197.452" stroke="#F5EBC9" stroke-width="0.884018"/>
<path opacity="0.745763" d="M126.006 3.39282L74.2341 196.607" stroke="#F5EBC9" stroke-width="0.884018"/>
<path opacity="0.762712" d="M129.362 4.35488L70.879 195.645" stroke="#F5EBC9" stroke-width="0.884018"/>
<path opacity="0.779661" d="M132.682 5.43351L67.5582 194.566" stroke="#F5EBC9" stroke-width="0.884018"/>
<path opacity="0.79661" d="M135.963 6.62771L64.2781 193.372" stroke="#F5EBC9" stroke-width="0.884018"/>
<path opacity="0.813559" d="M139.199 7.93546L61.0411 192.064" stroke="#F5EBC9" stroke-width="0.884018"/>
<path opacity="0.830508" d="M142.388 9.35513L57.8519 190.644" stroke="#F5EBC9" stroke-width="0.884018"/>
<path opacity="0.847458" d="M145.526 10.886L54.7141 189.114" stroke="#F5EBC9" stroke-width="0.884018"/>
<path opacity="0.864407" d="M148.608 12.5248L51.6315 187.475" stroke="#F5EBC9" stroke-width="0.884018"/>
<path opacity="0.881356" d="M151.632 14.2702L48.6088 185.73" stroke="#F5EBC9" stroke-width="0.884018"/>
<path opacity="0.898305" d="M154.592 16.1202L45.6479 183.88" stroke="#F5EBC9" stroke-width="0.884018"/>
<path opacity="0.915254" d="M157.486 18.0725L42.7537 181.928" stroke="#F5EBC9" stroke-width="0.884018"/>
<path opacity="0.932203" d="M160.311 20.1245L39.9292 179.876" stroke="#F5EBC9" stroke-width="0.884018"/>
<path opacity="0.949153" d="M163.063 22.2733L37.1793 177.726" stroke="#F5EBC9" stroke-width="0.884018"/>
<path opacity="0.966102" d="M165.736 24.5177L34.5043 175.483" stroke="#F5EBC9" stroke-width="0.884018"/>
<path opacity="0.983051" d="M168.33 26.8538L31.9099 173.147" stroke="#F5EBC9" stroke-width="0.884018"/>
<path d="M170.841 29.2788L29.3984 170.722" stroke="#F5EBC9" stroke-width="0.884018"/>
</svg>
