<svg width="29" height="28" viewBox="0 0 29 28" fill="none" xmlns="http://www.w3.org/2000/svg">
<path d="M25.5 22.2648C25.5 23.521 20.5766 24.5408 14.5017 24.5408C8.42678 24.5408 3.5 23.521 3.5 22.2648C3.5 21.0086 8.42678 19.9922 14.5017 19.9922C20.5766 19.9922 25.5 21.0086 25.5 22.2648Z" fill="url(#paint0_radial_275_893)"/>
<path d="M19.4963 7.10284C19.2565 4.7931 17.3013 2.99663 14.9274 3C12.5569 3.00338 10.6085 4.7931 10.3451 7.09271L10.2944 7.62625L11.7228 7.71067L11.7498 7.18389C11.966 5.52249 13.2019 4.41152 14.9274 4.40814C16.6496 4.40476 17.9193 5.53262 18.105 7.21428L18.1962 7.92341L19.5841 7.82211L19.4963 7.10284Z" fill="#414242"/>
<path d="M6.56202 6.8903C6.25135 6.89368 6.00146 7.14356 6.00146 7.45423L6.01835 15.6903L6.02173 17.1626V17.5543L6.03186 22.6432C6.03186 22.9538 6.28512 23.2071 6.59916 23.2037L11.6847 23.197L12.5728 23.1936L18.2087 23.1835C21.3187 23.1767 23.8581 20.6272 23.8513 17.5205V17.1254L23.8345 7.88308C23.8311 7.31915 23.3752 6.85991 22.8079 6.85653C21.7712 6.85315 20.7109 6.84978 19.6844 6.91056L18.4012 7.02537C17.2564 7.1672 16.1015 7.42384 15.1797 7.88984C15.0142 7.97426 14.8217 7.97426 14.6596 7.88984C13.6905 7.38669 12.6403 7.12668 11.4381 6.9916L10.1583 6.89705C8.95281 6.84302 7.72364 6.87679 6.56202 6.8903Z" fill="#60BB55"/>
<path style="mix-blend-mode:multiply" d="M7.12938 6.88354C6.50467 6.8903 6.00152 7.4002 6.0049 8.02491L6.01841 15.6903L6.02178 17.1626V17.5543L6.03191 22.633C6.03191 22.9505 6.28855 23.2071 6.60597 23.2037L11.6847 23.197L12.5728 23.1936L18.2087 23.1835C21.3188 23.1767 23.8582 20.6272 23.8514 17.5205V17.1254L23.8345 7.89321C23.8311 7.32253 23.3685 6.85991 22.7978 6.85653C21.7645 6.85315 20.7076 6.84978 19.6844 6.91056L18.4012 7.02537C17.2598 7.16382 16.105 7.42384 15.1831 7.88984C15.0176 7.97088 14.8218 7.97426 14.6563 7.88646C13.6872 7.38331 12.637 7.12668 11.4382 6.9916L10.1584 6.89705C9.14872 6.85315 8.12217 6.87004 7.12938 6.88354Z" fill="url(#paint1_linear_275_893)"/>
<path d="M7.6333 23.2033L11.6855 23.1966L12.5736 23.1932L18.2095 23.1831C19.5873 23.1797 20.8536 22.6799 21.8328 21.8492C20.6813 19.1849 18.0238 17.3243 14.9374 17.3276C11.3579 17.3378 8.37282 19.8468 7.6333 23.2033Z" fill="#84C468"/>
<path style="mix-blend-mode:multiply" d="M7.6333 23.2033L11.6855 23.1966L12.5736 23.1932L18.2095 23.1831C19.5873 23.1797 20.8536 22.6799 21.8328 21.8492C20.6813 19.1849 18.0238 17.3243 14.9374 17.3276C11.3579 17.3378 8.37282 19.8468 7.6333 23.2033Z" fill="url(#paint2_linear_275_893)"/>
<path d="M14.9484 23.1904L18.2779 23.133C19.6354 23.133 20.8713 22.6502 21.8337 21.8532C23.073 20.8233 23.8565 19.27 23.8531 17.5208V17.1257L23.8328 7.32275C23.8328 7.06612 23.6268 6.86013 23.3702 6.86013C22.1579 6.85675 20.9017 6.83987 19.6861 6.91078L18.4029 7.02559C17.1501 7.18093 15.8804 7.47471 14.9214 8.03189L14.9484 23.1904Z" fill="#4F9D4D"/>
<path style="mix-blend-mode:multiply" d="M14.9484 23.1904L18.2779 23.133C19.6354 23.133 20.8713 22.6502 21.8337 21.8532C23.073 20.8233 23.8565 19.27 23.8531 17.5208V17.1257L23.8328 7.32275C23.8328 7.06612 23.6268 6.86013 23.3702 6.86013C22.1579 6.85675 20.9017 6.83987 19.6861 6.91078L18.4029 7.02559C17.1501 7.18093 15.8804 7.47471 14.9214 8.03189L14.9484 23.1904Z" fill="url(#paint3_linear_275_893)"/>
<path style="mix-blend-mode:multiply" opacity="0.7" d="M18.9736 9.57471C21.2158 9.57133 23.0393 11.3881 23.0427 13.6303C23.046 15.8725 21.2327 17.6926 18.9905 17.696C16.7449 17.7027 14.9248 15.886 14.9214 13.6438C14.9147 11.4016 16.7314 9.58147 18.9736 9.57471Z" fill="url(#paint4_linear_275_893)"/>
<path d="M18.9723 10.1079C20.9207 10.1045 22.5044 11.6815 22.5078 13.6299C22.5112 15.5784 20.9342 17.1587 18.9858 17.1621C17.0373 17.1655 15.457 15.5919 15.4536 13.6434C15.4502 11.695 17.0238 10.1113 18.9723 10.1079Z" fill="white"/>
<path d="M22.3869 12.6675C21.9648 14.1465 20.6006 15.2339 18.9831 15.2372C17.3656 15.2406 16.0013 14.16 15.5691 12.6844C15.4813 12.995 15.4307 13.326 15.4307 13.667C15.4374 15.6256 17.0279 17.2127 18.9865 17.2093C20.9484 17.2059 22.5321 15.6121 22.5287 13.6535C22.5287 13.3125 22.4781 12.9815 22.3869 12.6675Z" fill="url(#paint5_linear_275_893)"/>
<path d="M18.5754 11.3507C19.8586 11.219 21.0067 12.1544 21.1384 13.4342C21.2667 14.7208 20.3347 15.8656 19.0515 15.9973C17.7683 16.1256 16.6202 15.1936 16.4919 13.9104C16.448 13.4815 16.5223 13.0695 16.6878 12.7049C16.8971 13.0966 17.326 13.3464 17.7987 13.2958C18.4167 13.235 18.8658 12.6846 18.8016 12.0666C18.7746 11.7864 18.6463 11.5432 18.4606 11.3643C18.4977 11.3609 18.5383 11.3541 18.5754 11.3507Z" fill="#303030"/>
<path d="M14.9467 23.1898L18.2289 23.1831C19.6067 23.1797 20.8527 22.6799 21.832 21.8526C20.694 19.2153 17.979 17.3648 14.9365 17.3311L14.9467 23.1898Z" fill="#60BB55"/>
<path style="mix-blend-mode:multiply" d="M14.9467 23.1898L18.2289 23.1831C19.6067 23.1797 20.8527 22.6799 21.832 21.8526C20.694 19.2153 17.979 17.3648 14.9365 17.3311L14.9467 23.1898Z" fill="url(#paint6_linear_275_893)"/>
<path style="mix-blend-mode:multiply" opacity="0.5" d="M17.0826 17.1388C16.7078 15.7476 15.3334 15.6226 14.9586 15.599C14.9417 15.599 14.9282 15.5956 14.8741 15.6024C14.5162 15.6361 13.1317 15.7813 12.794 17.1996C12.7873 17.2435 12.794 17.3752 12.794 17.4259V17.4292C12.794 17.4292 12.9122 17.5069 13.0946 17.6217C13.3343 18.2836 14.4824 19.5364 14.9484 19.5364C14.9653 19.5364 14.9754 19.533 14.9923 19.533C15.3807 19.5364 16.4241 18.4051 16.7314 17.6724C16.9205 17.5508 17.0522 17.4596 17.0758 17.436C17.0893 17.3482 17.0995 17.2165 17.0826 17.1388Z" fill="url(#paint7_linear_275_893)"/>
<path style="mix-blend-mode:multiply" opacity="0.7" d="M10.851 9.57471C13.0932 9.57133 14.9134 11.3881 14.9201 13.6303C14.9235 15.8725 13.1068 17.6926 10.8645 17.696C8.62233 17.7027 6.80222 15.886 6.79885 13.6438C6.79209 11.4016 8.60545 9.58147 10.851 9.57471Z" fill="url(#paint8_linear_275_893)"/>
<path d="M10.8507 10.1079C12.7991 10.1045 14.3829 11.6815 14.3862 13.6299C14.3896 15.5784 12.8126 17.1587 10.8642 17.1621C8.91578 17.1655 7.33543 15.5919 7.33205 13.6434C7.3253 11.695 8.90227 10.1113 10.8507 10.1079Z" fill="white"/>
<path d="M14.2648 12.6675C13.8394 14.1465 12.4785 15.2339 10.861 15.2372C9.24351 15.2406 7.87928 14.16 7.44704 12.6844C7.35925 12.995 7.30859 13.326 7.30859 13.667C7.31197 15.6256 8.90583 17.2127 10.8644 17.2093C12.8229 17.2059 14.4101 15.6121 14.4067 13.6535C14.4067 13.3125 14.356 12.9815 14.2648 12.6675Z" fill="url(#paint9_linear_275_893)"/>
<path d="M11.2363 11.3408C12.5263 11.3375 13.5731 12.3809 13.5765 13.6675C13.5765 14.9574 12.533 16.0042 11.2465 16.0076C9.95313 16.011 8.90632 14.9675 8.90632 13.6776C8.90294 13.2487 9.02113 12.8435 9.22374 12.4991C9.38921 12.9111 9.79442 13.1981 10.2672 13.1981C10.8885 13.1981 11.3917 12.6949 11.3883 12.0736C11.3883 11.7933 11.287 11.5367 11.1181 11.3408C11.1587 11.3408 11.1958 11.3408 11.2363 11.3408Z" fill="#303030"/>
<path d="M14.9894 19.2123C15.4588 19.2157 16.8939 17.6286 16.8129 17.0511C16.482 15.8051 15.2798 15.6464 14.9523 15.6295C14.9354 15.6261 14.9252 15.6261 14.8746 15.6295C14.5605 15.6599 13.3483 15.8625 13.0511 17.1355C12.9532 17.6117 14.4052 19.2123 14.9455 19.2157C14.9624 19.2157 14.9725 19.2123 14.9894 19.2123Z" fill="url(#paint10_linear_275_893)"/>
<path style="mix-blend-mode:multiply" d="M16.5213 17.8107C16.7171 17.5102 16.8387 17.2333 16.8151 17.051C16.68 16.5512 16.4065 16.2236 16.1059 16.0143C15.6433 15.7644 15.1604 15.7104 14.9578 15.7002C14.9409 15.7002 14.9274 15.6969 14.8734 15.7002C14.6809 15.7205 14.198 15.7914 13.7388 16.0616C13.4416 16.2844 13.1715 16.6221 13.0533 17.1354C13.0263 17.2705 13.1242 17.4967 13.2897 17.7533C13.83 18.0741 14.6539 18.5334 14.9409 18.5334C15.2347 18.5334 15.9911 18.1248 16.5213 17.8107Z" fill="url(#paint11_linear_275_893)"/>
<path style="mix-blend-mode:multiply" opacity="0.5" d="M16.5213 17.8107C16.7171 17.5102 16.8387 17.2333 16.8151 17.051C16.68 16.5512 16.4065 16.2236 16.1059 16.0143C15.6433 15.7644 15.1604 15.7104 14.9578 15.7002C14.9409 15.7002 14.9274 15.6969 14.8734 15.7002C14.6809 15.7205 14.198 15.7914 13.7388 16.0616C13.4416 16.2844 13.1715 16.6221 13.0533 17.1354C13.0263 17.2705 13.1242 17.4967 13.2897 17.7533C13.83 18.0741 14.6539 18.5334 14.9409 18.5334C15.2347 18.5334 15.9911 18.1248 16.5213 17.8107Z" fill="url(#paint12_linear_275_893)"/>
<path opacity="0.8" d="M14.5384 8.22428C13.5692 7.6671 12.5123 7.3902 11.2966 7.25851L10.1012 7.16733C8.98014 7.12006 7.83539 7.15045 6.75143 7.16058C6.46103 7.16396 6.22803 7.40033 6.22803 7.69074C9.98305 7.02213 14.5384 8.22428 14.5384 8.22428Z" fill="url(#paint13_linear_275_893)"/>
<path opacity="0.8" d="M15.2271 8.22428C16.1928 7.6671 17.2498 7.3902 18.4688 7.25851L19.6642 7.16733C20.7819 7.12006 21.9267 7.15045 23.0106 7.16058C23.301 7.16396 23.534 7.40033 23.534 7.69074C19.779 7.02213 15.2271 8.22428 15.2271 8.22428Z" fill="url(#paint14_linear_275_893)"/>
<path d="M17.0695 16.9633C16.6947 15.6329 15.3338 15.4674 14.959 15.4471C14.9421 15.4471 14.9286 15.4438 14.8746 15.4505C14.5166 15.4843 13.1389 15.7004 12.8046 17.0579C12.7944 17.1018 12.7944 17.1491 12.7944 17.1929V17.1997C12.7944 17.1997 14.5031 18.2803 14.9421 18.2803C15.398 18.2803 16.9783 17.2943 17.0762 17.2065C17.0898 17.122 17.0864 17.041 17.0695 16.9633Z" fill="url(#paint15_linear_275_893)"/>
<path style="mix-blend-mode:multiply" opacity="0.9" d="M12.8026 17.0576C12.7925 17.1015 12.7925 17.1487 12.7925 17.1926V17.1994C12.7925 17.1994 14.4505 18.2496 14.9199 18.28C15.0482 15.6663 14.8726 15.4502 14.8726 15.4502C14.5147 15.484 13.1369 15.7001 12.8026 17.0576Z" fill="url(#paint16_linear_275_893)"/>
<path d="M15.3834 15.5045C15.201 15.4674 15.0491 15.4539 14.9545 15.4471C14.9377 15.4471 14.9241 15.4438 14.8701 15.4505C14.8701 15.4505 15.0457 15.6666 14.9174 18.2803C15.1369 17.6927 15.3057 16.2609 15.3834 15.5045Z" fill="url(#paint17_linear_275_893)"/>
<defs>
<radialGradient id="paint0_radial_275_893" cx="0" cy="0" r="1" gradientUnits="userSpaceOnUse" gradientTransform="translate(14.5005 22.3304) scale(10.723 10.723)">
<stop offset="0.125" stop-color="#515252" stop-opacity="0.7"/>
<stop offset="0.966" stop-color="#515252" stop-opacity="0"/>
</radialGradient>
<linearGradient id="paint1_linear_275_893" x1="26.6512" y1="15.416" x2="17.2171" y2="32.7702" gradientUnits="userSpaceOnUse">
<stop stop-color="#519B4C" stop-opacity="0"/>
<stop offset="1" stop-color="#519B4C"/>
</linearGradient>
<linearGradient id="paint2_linear_275_893" x1="15.9729" y1="20.4424" x2="16.0124" y2="25.3006" gradientUnits="userSpaceOnUse">
<stop stop-color="#519B4C" stop-opacity="0"/>
<stop offset="1" stop-color="#519B4C"/>
</linearGradient>
<linearGradient id="paint3_linear_275_893" x1="34.9374" y1="11.8629" x2="37.0744" y2="29.2097" gradientUnits="userSpaceOnUse">
<stop stop-color="#519B4C" stop-opacity="0"/>
<stop offset="1" stop-color="#519B4C"/>
</linearGradient>
<linearGradient id="paint4_linear_275_893" x1="29.2264" y1="12.3363" x2="14.5246" y2="25.0801" gradientUnits="userSpaceOnUse">
<stop stop-color="#3F843F"/>
<stop offset="1" stop-color="#519B4C"/>
</linearGradient>
<linearGradient id="paint5_linear_275_893" x1="17.5279" y1="17.1578" x2="17.5279" y2="12.895" gradientUnits="userSpaceOnUse">
<stop stop-color="#E5E3E3"/>
<stop offset="1" stop-color="#E5E3E3" stop-opacity="0"/>
</linearGradient>
<linearGradient id="paint6_linear_275_893" x1="21.0047" y1="20.8173" x2="20.7571" y2="25.2743" gradientUnits="userSpaceOnUse">
<stop stop-color="#519B4C" stop-opacity="0"/>
<stop offset="1" stop-color="#519B4C"/>
</linearGradient>
<linearGradient id="paint7_linear_275_893" x1="16.8129" y1="16.1162" x2="16.7126" y2="21.0318" gradientUnits="userSpaceOnUse">
<stop stop-color="#3F843F"/>
<stop offset="1" stop-color="#519B4C"/>
</linearGradient>
<linearGradient id="paint8_linear_275_893" x1="6.79743" y1="9.57579" x2="14.9191" y2="9.57579" gradientUnits="userSpaceOnUse">
<stop stop-color="#3F843F"/>
<stop offset="1" stop-color="#519B4C"/>
</linearGradient>
<linearGradient id="paint9_linear_275_893" x1="9.40536" y1="17.1578" x2="9.40536" y2="12.895" gradientUnits="userSpaceOnUse">
<stop stop-color="#E5E3E3"/>
<stop offset="1" stop-color="#E5E3E3" stop-opacity="0"/>
</linearGradient>
<linearGradient id="paint10_linear_275_893" x1="16.4428" y1="16.0733" x2="16.4461" y2="19.1721" gradientUnits="userSpaceOnUse">
<stop stop-color="#F9EC31"/>
<stop offset="1" stop-color="#F6921E"/>
</linearGradient>
<linearGradient id="paint11_linear_275_893" x1="16.9728" y1="21.0388" x2="13.4984" y2="18.2339" gradientUnits="userSpaceOnUse">
<stop stop-color="#F9EC31"/>
<stop offset="1" stop-color="#F6921E"/>
</linearGradient>
<linearGradient id="paint12_linear_275_893" x1="16.9728" y1="21.0388" x2="13.4984" y2="18.2339" gradientUnits="userSpaceOnUse">
<stop stop-color="#F9EC31"/>
<stop offset="1" stop-color="#F6921E"/>
</linearGradient>
<linearGradient id="paint13_linear_275_893" x1="10.3128" y1="8.66651" x2="10.3128" y2="5.6789" gradientUnits="userSpaceOnUse">
<stop offset="0.198" stop-color="white" stop-opacity="0"/>
<stop offset="0.972" stop-color="white"/>
</linearGradient>
<linearGradient id="paint14_linear_275_893" x1="19.4509" y1="8.74407" x2="19.4509" y2="5.75646" gradientUnits="userSpaceOnUse">
<stop offset="0.198" stop-color="white" stop-opacity="0"/>
<stop offset="0.972" stop-color="white"/>
</linearGradient>
<linearGradient id="paint15_linear_275_893" x1="15.9255" y1="15.8028" x2="15.8527" y2="19.3712" gradientUnits="userSpaceOnUse">
<stop stop-color="#F9EC31"/>
<stop offset="1" stop-color="#F6921E"/>
</linearGradient>
<linearGradient id="paint16_linear_275_893" x1="17.5143" y1="17.655" x2="13.9609" y2="18.891" gradientUnits="userSpaceOnUse">
<stop offset="0.001" stop-color="#F9EC31" stop-opacity="0"/>
<stop offset="1" stop-color="#F6921E"/>
</linearGradient>
<linearGradient id="paint17_linear_275_893" x1="7.52793" y1="20.0093" x2="6.92997" y2="15.6506" gradientUnits="userSpaceOnUse">
<stop offset="0.198" stop-color="white" stop-opacity="0"/>
<stop offset="0.972" stop-color="white"/>
</linearGradient>
</defs>
</svg>
